<svg height="512" viewBox="0 0 512 512" width="512" xmlns="http://www.w3.org/2000/svg"><g id="Filled_outline" data-name="Filled outline"><path d="m296 104h56v40h-56z" fill="#fec093"/><path d="m264 280 33.733-42.033a35.822 35.822 0 0 0 -8.427-3.155l-89.806-23.062v68.25z" fill="#404f66"/><path d="m316.565 262.828a35.913 35.913 0 0 0 -18.832-24.861l-33.733 42.033 11.385 51.232 33.215-37.932a35.976 35.976 0 0 0 7.965-30.472z" fill="#fec093"/><path d="m400 312a88 88 0 1 0 88 88 88 88 0 0 0 -88-88zm0 144a56 56 0 1 1 56-56 56 56 0 0 1 -56 56z" fill="#4d5e78"/><path d="m112 312a88 88 0 1 0 88 88 88 88 0 0 0 -88-88zm0 144a56 56 0 1 1 56-56 56 56 0 0 1 -56 56z" fill="#4d5e78"/><circle cx="248" cy="408" fill="#e0e0de" r="32"/><path d="m296 104h-6.159a226.922 226.922 0 0 0 -95.094 20.886l-15.165 7a75.019 75.019 0 0 0 -43.582 68.114h71.015l.985-16h72l40-24v-32a24 24 0 0 0 -24-24z" fill="#7eb457"/><path d="m320 128v32l-40 24h-56.39c21.65-12.26 60.18-38.66 78.53-79.2a24 24 0 0 1 17.86 23.2z" fill="#77ad50"/><path d="m208 208-.985-8h-71.015v14.305a40 40 0 0 0 13.093 29.6l62.336 56.668 38.571-38.573z" fill="#4d5e78"/><path d="m384 72h-96a47.813 47.813 0 0 1 14.06-33.94 46.732 46.732 0 0 1 6.48-5.43 48 48 0 0 1 75.46 39.37z" fill="#7eb457"/><path d="m384 72h-24.18a44.043 44.043 0 0 0 -51.28-39.37 48 48 0 0 1 75.46 39.37z" fill="#77ad50"/><path d="m384 72v40a32 32 0 1 1 -64 0v-40z" fill="#fec9a3"/><path d="m384 72v40a32.017 32.017 0 0 1 -40.98 30.72 43.894 43.894 0 0 0 16.98-34.72v-32c0-1.35-.06-2.68-.18-4z" fill="#fec093"/><path d="m320 104h-24l-8-32h32z" fill="#4d5e78"/><path d="m320 124a20 20 0 0 0 -40 0v36h40z" fill="#88c25e"/><path d="m320 200v-40h-40v48a32 32 0 0 0 32 32h112v-32z" fill="#fec9a3"/><path d="m264 280-14-18-38.571 38.571 12.571 11.429 31.111 112h40.889z" fill="#fec9a3"/><path d="m296 424h-40.889l8.889 32h56v-16z" fill="#7eb457"/><path d="m400 304a95.658 95.658 0 0 0 -22.445 2.758l-17.879-58.758h56.324a16.03 16.03 0 0 1 -16 16h-16v16h16a32.036 32.036 0 0 0 32-32v-40a8 8 0 0 0 -7.387-7.977l-96.613-7.429v-48.8a39.607 39.607 0 0 0 24 8.206 40.047 40.047 0 0 0 40-40v-40a56 56 0 0 0 -112 0 7.46 7.46 0 0 0 .224 1.107 7.669 7.669 0 0 0 .014.831l5.544 22.174a236.718 236.718 0 0 0 -94.438 21.521l-15.09 7.023a83.192 83.192 0 0 0 -48.254 75.344s.1 16.539.133 16.819a48.087 48.087 0 0 0 15.578 33.009l33.471 30.425-22.072 34.091a95.96 95.96 0 1 0 51.445 101.656h10.581a31.967 31.967 0 0 0 30.864 24 31.208 31.208 0 0 0 3.166-.313l5.127 18.454a8 8 0 0 0 7.707 5.859h56a7.874 7.874 0 0 0 6.024-2.887 95.981 95.981 0 1 0 73.976-157.113zm-100-192a12.013 12.013 0 0 1 12 12v28h-24v-28a12.013 12.013 0 0 1 12-12zm12-16h-9.754l-4-16h13.754zm-39.36 186.007 1.606-2.007h32.966a27.42 27.42 0 0 1 -4.6 7.992l-22.9 25.844zm14.406-18.007 12.31-15.388a27.912 27.912 0 0 1 9.256 15.388zm-12.112-41.136-56.515-14.5-2.747-3.533-.611-4.965.474-7.863h56.465v16a39.682 39.682 0 0 0 2.934 14.861zm9.389 18.925-17.769 22.211h-4.86l-5.378-6.914-21.845-28.086zm-45.565 153.232 1.383 4.979h-5.962a16.234 16.234 0 0 1 4.579-4.979zm-7.051-85.162a8.024 8.024 0 0 0 -2.324-3.781l-6.363-5.778 26.23-26.235 7.332 9.43 29.445 132.505h-24.836zm52.293 23.266 30.676-34.617a43.813 43.813 0 0 0 9.394-18.508h19l-55.807 67.8zm63.819-69.125h-23.019c-.125-.915-.207-1.829-.39-2.742a43.726 43.726 0 0 0 -5.073-13.258h23.613zm68.181-48.594v16.594h-104a24.027 24.027 0 0 1 -24-24v-40h24v32a8 8 0 0 0 7.387 7.977zm-40-103.406a24 24 0 0 1 -48 0v-32h16v16h16v-16h16zm-40-80a40.069 40.069 0 0 1 39.2 32h-78.39a40.069 40.069 0 0 1 39.19-32zm-153.023 107.172 15.093-7.024a220.747 220.747 0 0 1 76.4-19.53 27.739 27.739 0 0 0 -2.47 11.382v52h-64a8 8 0 0 0 -7.984 7.523l-.516 8.477h-55.02a67.2 67.2 0 0 1 38.497-52.828zm-38.977 75.133v-6.305h55.941l.118.977a7.987 7.987 0 0 0 1.625 3.937l37.664 48.422-14.09 14.094-14.092 14.091-56.689-51.537a32.078 32.078 0 0 1 -10.477-23.679zm-32 265.695a80 80 0 1 1 34.357-152.137l-8.753 13.52a64 64 0 1 0 36.29 74.617h16.494a80.135 80.135 0 0 1 -78.388 64zm80-80h-16a63.868 63.868 0 0 0 -24.669-50.381l8.7-13.441a79.841 79.841 0 0 1 31.969 63.822zm-95.027 11.82a7.993 7.993 0 0 0 7.027 4.18h53.2a48.082 48.082 0 1 1 -28.459-60.928l-31.456 48.584a7.981 7.981 0 0 0 -.312 8.164zm21.734-11.82 23.914-36.931a47.918 47.918 0 0 1 17.379 36.931zm50.03-77.263 20.446-31.574 1.289 1.171 39.671 89.187a31.623 31.623 0 0 0 -13.024 18.479h-9.119a95.827 95.827 0 0 0 -39.263-77.263zm65.489 93.263h10.359l2.188 7.876a15.921 15.921 0 0 1 -12.547-7.876zm77.774 32h-41.918l-4.445-16h27.941l18.422 12.281zm-8.889-28.874-11.444-51.5 64.019-77.78 6.653 21.865a95.568 95.568 0 0 0 -55.857 109.659zm96.889 60.874a79.949 79.949 0 0 1 -32.953-152.814l4.708 15.471a62.853 62.853 0 1 0 15.114-5.29l-4.657-15.3a79.973 79.973 0 1 1 17.788 157.933zm-8.438-127.21a48.01 48.01 0 1 1 -15.078 5.41l15.864 52.128 15.3-4.656z"/></g></svg>