<svg id="Layer_5" enable-background="new 0 0 64 64" height="512" viewBox="0 0 64 64" width="512" xmlns="http://www.w3.org/2000/svg"><g><g><g><path d="m34 18c0-2.19-1.18-4.1-2.93-5.15.59-.89.93-1.84.93-2.85 0-4.42-6.27-8-14-8s-14 3.58-14 8c0 .87.25 1.7.7 2.49-1.64 1.28-2.7 3.27-2.7 5.51 0 3.3 2.29 6.06 5.36 6.8-.23.69-.36 1.43-.36 2.2 0 3.87 3.13 7 7 7h9c3.87 0 7-3.13 7-7 0-1.13-.27-2.19-.75-3.13 2.71-.58 4.75-2.99 4.75-5.87z" fill="#b4dd7f"/></g><path d="m16 18v37c0-2.8 1.63-5.2 4-6.32v-30.68z" fill="#cf9e76"/><g><circle cx="50" cy="14" fill="#fcd770" r="6"/></g></g><g><path d="m50 21c3.859 0 7-3.141 7-7s-3.141-7-7-7-7 3.141-7 7 3.141 7 7 7zm0-12c2.757 0 5 2.243 5 5s-2.243 5-5 5-5-2.243-5-5 2.243-5 5-5z"/><path d="m59 13h4v2h-4z"/><path d="m55.779 5.222h4v2h-4z" transform="matrix(.707 -.707 .707 .707 12.524 42.678)"/><path d="m49 1h2v4h-2z"/><path d="m41.222 4.222h2v4h-2z" transform="matrix(.707 -.707 .707 .707 7.967 31.678)"/><path d="m37 13h4v2h-4z"/><path d="m40.221 20.778h4v2h-4z" transform="matrix(.707 -.707 .707 .707 -3.033 36.234)"/><path d="m49 23h2v4h-2z"/><path d="m56.778 19.779h2v4h-2z" transform="matrix(.707 -.707 .707 .707 1.523 47.234)"/><path d="m55 47c-1.465 0-2.836.403-4.018 1.093l-4.637-5.101 1.309-2.992h3.346c.553 0 1-.447 1-1s-.447-1-1-1h-8c-.553 0-1 .447-1 1s.447 1 1 1h2.471l-.875 2h-16.016l2.43-6.985c.42-1.205 1.558-2.015 2.834-2.015h5.156c.553 0 1-.447 1-1s-.447-1-1-1h-5.156c-2.126 0-4.023 1.349-4.723 3.357l-4.458 12.819c-.537-.114-1.093-.176-1.663-.176-.692 0-1.359.097-2 .263v-12.525c.649.168 1.316.262 2 .262 4.411 0 8-3.589 8-8 0-.857-.136-1.694-.404-2.5 2.609-1.048 4.404-3.618 4.404-6.5 0-2.151-.96-4.125-2.608-5.446.404-.83.608-1.686.608-2.554 0-5.047-6.589-9-15-9s-15 3.953-15 9c0 .757.154 1.506.461 2.236-1.573 1.505-2.461 3.564-2.461 5.764 0 3.362 2.073 6.305 5.149 7.471-.099.505-.149 1.016-.149 1.529 0 4.411 3.589 8 8 8 .336 0 .669-.031 1-.072v20.072c0 2.39 1.059 4.533 2.726 6h-16.726v2h54c4.411 0 8-3.589 8-8s-3.589-8-8-8zm-1.352 7h-4.558c.209-1.239.794-2.351 1.641-3.209zm-8.182-9 3.919 4.31c-1.246 1.23-2.087 2.866-2.316 4.69h-5.541zm-1.745-1-4.354 9.953-9.953-9.953zm-16.172.963 9.037 9.037h-5.655c-.34-2.706-2.034-4.99-4.382-6.159zm-12.549-19.815-2.219-2.773-1.563 1.25 3.782 4.727v4.557c-.329.055-.662.091-1 .091-3.309 0-6-2.691-6-6 0-.636.104-1.271.308-1.887l.342-1.032-1.057-.255c-2.704-.651-4.593-3.047-4.593-5.826 0-1.855.844-3.577 2.313-4.726l.683-.533-.43-.752c-.376-.656-.566-1.325-.566-1.989 0-3.794 5.953-7 13-7s13 3.206 13 7c0 .766-.257 1.537-.763 2.295l-.585.875.903.539c1.531.914 2.445 2.519 2.445 4.291 0 2.345-1.663 4.401-3.955 4.889l-1.267.27.581 1.157c.425.847.641 1.749.641 2.684 0 3.309-2.691 6-6 6-.69 0-1.36-.117-2-.345v-7.155l7.6-5.7-1.2-1.6-2.004 1.503.59-3.539-1.973-.328-.934 5.605-2.079 1.559v-8.586l4.707-4.707-1.414-1.414-5.293 5.293v3.414h-2.587l-3.706-3.707-1.414 1.414 3.707 3.707zm2-6.148h2v29.083c-.753.437-1.428.994-2 1.644zm6 42c-3.309 0-6-2.691-6-6s2.691-6 6-6c.34 0 .672.035.997.09l-1.941 5.582c-.182.521.094 1.091.616 1.272.108.038.219.056.328.056.414 0 .801-.259.944-.672l1.943-5.585c1.854 1.022 3.113 2.995 3.113 5.257 0 3.309-2.691 6-6 6zm5.274 0c1.43-1.259 2.408-3.016 2.657-5h16.139c.249 1.984 1.226 3.741 2.657 5zm26.726 0c-2.967 0-5.431-2.167-5.91-5h6.91v-2.387l-3.633-3.996c.796-.391 1.688-.617 2.633-.617 3.309 0 6 2.691 6 6s-2.691 6-6 6z"/></g></g></svg>