<?xml version="1.0" encoding="iso-8859-1"?>
<!-- Generator: Adobe Illustrator 19.0.0, SVG Export Plug-In . SVG Version: 6.00 Build 0)  -->
<svg version="1.1" id="Capa_1" xmlns="http://www.w3.org/2000/svg" xmlns:xlink="http://www.w3.org/1999/xlink" x="0px" y="0px"
	 viewBox="0 0 409.12 409.12" style="enable-background:new 0 0 409.12 409.12;" xml:space="preserve">
<g>
	<g>
		<path d="M403.8,190.4L403.8,190.4c-6.36,0-5.92-6.96-6.48-11.4c-1.12-8.48-2.8-11.04,6.04-13.4l1.44-2.52l-6.16-23.04
			c-0.68-2.48-3.48-1.2-5.2-0.72c-6.12,1.64-7.48-5.08-9.24-9.32l-2.48-5.6c-2.96-6.56,5.16-8,5.76-10.08v-1.56l-12-20.68
			c-1.28-2.2-3.72-0.28-5.12,0.56c-5.6,3.36-8.6-2.76-11.48-6.48c-5.32-6.88-8-8-1.48-14.68V68.4l-16.96-16.84
			c-1.84-1.84-3.76,0.84-4.96,2c-4.48,4.48-9-0.68-12.64-3.48s-9.76-5.68-6.6-11.32c0.84-1.44,2.92-4,0.64-5.28l-20.92-12
			c-1.96-1-3.2,1.88-4,3.12c-3.2,5.76-8.92,1.92-13.24,0c-7.28-3.04-11.24-3.12-8.6-12c0.198-0.501,0.198-1.059,0-1.56l-1.24-0.96
			l-23.04-6.16c-0.501-0.198-1.059-0.198-1.56,0l-1.68,4c-1.64,6.16-8.24,4-12.64,3.32c-8.56-1.12-11.44,0-11.44-9.32l-2.08-1.72
			h-24c-2.6,0-2.04,3.16-2.08,4.88c0,6.36-6.96,5.92-11.4,6.48c-8.44,1.12-11.04,2.84-13.4-6.04l-2.52-1.44l-23,6.16
			c-2.48,0.68-1.2,3.48-0.72,5.24c1.64,6.12-5.16,7.52-9.32,9.24l-5.56,2.4c-4.92,2.24-7.28-2.08-8.8-4.8l-2.84-0.76l-20.68,12
			c-2.16,1.32-0.32,3.64,0.56,5.12c3.36,5.6-2.76,8.6-6.48,11.48c-6.88,5.28-8,8-14.68,1.48h-3.08L51.6,68.4v2.92l2,2.04
			c4.44,4.48-0.68,9.04-3.48,12.64c-2.8,3.6-5.68,9.8-11.32,6.6c-1.44-0.84-4-2.92-5.28-0.64l-12,20.92c-1,1.96,1.88,3.2,3.12,4
			c5.76,3.2,1.92,8.92,0,13.24s-3.12,10.96-9.24,9.32l-4.24-0.52l-0.96,1.24L4.04,163.2c-0.198,0.501-0.198,1.059,0,1.56l4,1.68
			c6.16,1.64,4,8.24,3.32,12.64c-1.12,8.56,0,11.44-9.32,11.44L0,192.56v24c0,2.6,3.16,2.04,4.88,2.08c6.36,0,5.92,6.96,6.48,11.4
			c1.12,8.48,2.8,11.04-6.04,13.4l-1.44,2.52L10.04,269c0.68,2.48,3.48,1.2,5.2,0.72c6.12-1.64,7.48,5.08,9.24,9.32l2.68,5.36
			c2.96,6.56-5.16,8-5.76,10.08v1.56l12,20.68c1.2,2.2,3.76,0.28,5.12-0.56c5.6-3.36,8.6,2.76,11.48,6.48c5.36,6.88,8,8,1.48,14.68
			v3.08l16.96,16.84c1.84,1.84,3.76-0.84,4.96-2c4.48-4.48,9,0.68,12.64,3.48c3.64,2.8,9.76,5.84,6.6,11.32
			c-0.84,1.44-2.92,4-0.64,5.28l20.92,12c2,1,3.2-1.88,4-3.12c3.2-5.76,8.92-1.92,13.24,0c8,3.28,11,3.08,8.6,12
			c-0.198,0.501-0.198,1.059,0,1.56l1.24,0.96l23.04,6.16c0.501,0.198,1.059,0.198,1.56,0l1.68-4c1.64-6.16,8.24-4,12.64-3.32
			c8.56,1.12,11.44,0,11.44,9.32l2.04,2.04h24c2.6,0,2.04-3.12,2.08-4.88c0-6.36,6.96-5.92,11.4-6.48
			c8.48-1.12,11.04-2.84,13.4,6.04l2.52,1.44l23.04-6.16c2.48-0.68,1.2-3.48,0.72-5.2c-1.64-6.12,5.08-7.48,9.32-9.24l5.68-2.44
			c6.56-2.96,8,5.16,10.08,5.76h1.56l20.68-12c2.2-1.2,0.28-3.76-0.56-5.12c-3.36-5.6,2.76-8.6,6.48-11.48c6.88-5.36,8-8,14.68-1.48
			h2.96l16.84-17.28v-2.92c-2.24-2.24-5.88-5.6-2.4-9.8l7.36-9.56c4.32-6.32,9.48,0.36,12-0.28c0.536-0.141,0.995-0.485,1.28-0.96
			l12-20.92c1-1.96-1.88-3.2-3.12-4c-5.76-3.2-1.92-8.92,0-13.2c3.04-7.28,3.12-11.24,12-8.6c0.501,0.198,1.059,0.198,1.56,0
			l0.96-1.24l6.16-23.04c0.198-0.501,0.198-1.059,0-1.56l-4-1.68c-6.16-1.64-4-8.24-3.32-12.64c1.12-8.56,0-11.44,9.32-11.44
			l2.04-2.04V192.4C408.64,189.88,405.52,190.4,403.8,190.4z M318.92,318.92v-0.04c-63.105,63.362-165.627,63.571-228.989,0.466
			S26.36,153.719,89.465,90.357c3.6-3.615,7.37-7.058,11.295-10.317l0.56-0.48c68.911-56.994,170.977-47.334,227.971,21.577
			C382.549,165.531,378.057,259.878,318.92,318.92z"/>
	</g>
</g>
<g>
	<g>
		<path d="M351.76,233.12c0.773-3.92,1.387-7.92,1.84-12l-39.68-17.36l39.56-17.32c-0.48-4-1.107-8-1.88-12l-52.16,23.16l-27.2-12
			l17.4-23.6l56.84-6.36c-1.36-3.787-2.813-7.533-4.36-11.24l-43.04,4.8l25.6-34.76c-2.427-3.2-4.96-6.293-7.6-9.28l0,0L283.28,151
			l-29.52,3.28l3.28-29.2l46-33.88c-3.013-2.667-6.147-5.187-9.4-7.56l-34.88,25.68l4.8-42.96c-3.68-1.573-7.427-3-11.24-4.28
			l-6.28,56.68l-24,17.6l-11.8-26.92l23-52.4c-3.92-0.773-7.92-1.373-12-1.8l-17.36,39.68l-17.32-39.56c-4,0.48-8,1.107-12,1.88
			l23.08,52.16l-12,27.2l-23.6-17.4l-6.32-56.84c-3.813,1.36-7.573,2.813-11.28,4.36l4.8,43.04l-34.76-25.6
			c-3.2,2.4-6.307,4.933-9.32,7.6l45.88,33.76l3.28,29.52l-29.2-3.24l-33.88-46c-2.667,3.013-5.187,6.147-7.56,9.4l25.68,34.88
			l-42.92-4.84c-1.573,3.68-3,7.427-4.28,11.24l56.64,6.32l17.6,24l-26.92,11.8l-52.4-23c-0.773,3.92-1.387,7.92-1.84,12
			l39.68,17.36l-39.56,17.32c0.48,4,1.107,8,1.88,12l52.2-23.08l27.2,12l-17.4,23.6l-56.84,6.32c1.36,3.813,2.827,7.573,4.4,11.28
			l43.04-4.8l-25.6,34.76c2.4,3.2,4.933,6.307,7.6,9.32l33.76-45.84l29.52-3.28l-3.24,29.2l-46.04,33.84
			c3.013,2.667,6.147,5.187,9.4,7.56l34.88-25.68l-4.84,42.92c3.68,1.573,7.427,3,11.24,4.28l6.32-56.6l24-17.6l11.8,26.92
			l-23,52.36c3.92,0.773,7.92,1.387,12,1.84L205,313.92l17.32,39.56c4-0.48,8-1.107,12-1.88l-23.08-52.2l12-27.2l23.6,17.4
			l6.36,56.84c3.787-1.36,7.533-2.813,11.24-4.36l-4.8-43.04l34.76,25.6c3.2-2.4,6.307-4.933,9.32-7.6l-45.88-33.8l-3.28-29.52
			l29.2,3.28l33.88,46c2.667-3.013,5.187-6.147,7.56-9.4l-25.68-34.88l42.96,4.8c1.573-3.68,3-7.427,4.28-11.24L290.08,246l-17.6-24
			l26.92-11.8L351.76,233.12z M134.52,164.4l21.12,2.36l1.2,10.84l-9.56,4L134.52,164.4z M156,216.4l0.76,2.72l-2.08-0.92L156,216.4
			z M154.4,191.48l2.08-0.92l-0.72,2.76L154.4,191.48z M123.96,204.8l19.52-8.4l6.48,8.76l-6.2,8.4L123.96,204.8z M156.44,242.64
			l-21.44,2.4l12.6-17.12l10,4.48L156.44,242.64z M244.44,134.64l-2.36,21.12l-10.84,1.2l-4-9.56L244.44,134.64z M240.44,167.48
			l-0.24,2.24l-2.04-2L240.44,167.48z M217.16,154.36l0.92,2.08l-2.76-0.72L217.16,154.36z M203.84,123.92l8.6,19.52l-8.76,6.48
			l-8.4-6.2L203.84,123.92z M190.4,154.64l1.8,1.32l-2.72,0.76L190.4,154.64z M180.8,147.56l-4.36,10l-10.24-1.16l-2.4-21.44
			L180.8,147.56z M169.76,168.4l-2,2.04l-0.24-2.04H169.76z M164.44,274.32l2.36-21.12l10.84-1.2l4,9.56L164.44,274.32z
			 M168.44,241.32l0.24-2.24l2.04,2L168.44,241.32z M191.72,254.44l-1.04-2.04l2.76,0.72L191.72,254.44z M205.04,284.88l-8.6-19.52
			l8.76-6.48l8.4,6.2L205.04,284.88z M218.48,254.16l-2.04-1.32l2.72-0.76L218.48,254.16z M177.344,231.304
			c-7.114-7.15-11.119-16.818-11.144-26.904c0-21.119,17.121-38.24,38.24-38.24c21.119,0,38.24,17.121,38.24,38.24
			c0,10.142-4.029,19.868-11.2,27.039C216.493,246.352,192.256,246.291,177.344,231.304z M241.32,240.4h-2.24l2-2.04L241.32,240.4z
			 M227.92,261.08l4.52-9.8l10.36,1.16l2.4,21.44L227.92,261.08z M252.44,166.16l21.44-2.4l-12.6,17.2l-10-4.56L252.44,166.16z
			 M253.12,215.48l1.36,1.84l-2.08,0.92L253.12,215.48z M252.12,189.68l2.08,0.92l-1.32,1.8L252.12,189.68z M274.36,244.4
			l-21.12-2.36l-1.2-10.84l9.56-4L274.36,244.4z M265.4,212.4l-6.48-8.76l6.2-8.4l19.8,8.76L265.4,212.4z"/>
	</g>
</g>
<g>
</g>
<g>
</g>
<g>
</g>
<g>
</g>
<g>
</g>
<g>
</g>
<g>
</g>
<g>
</g>
<g>
</g>
<g>
</g>
<g>
</g>
<g>
</g>
<g>
</g>
<g>
</g>
<g>
</g>
</svg>
